<svg width="815" height="649" viewBox="0 0 815 649" fill="none" xmlns="http://www.w3.org/2000/svg">
<g opacity="0.7">
<path d="M543.431 813.435L37.9406 513.954C21.8531 504.903 8.04376 490.016 23.7375 480.289L531.028 187.067C538.65 182.33 550.209 179.229 557.944 183.74L1088.44 492.667C1104.52 502.027 1107.42 528.192 1091.25 537.58L610.059 812.956C599.953 818.834 588.493 821.969 576.809 822.053C565.125 822.137 553.621 819.167 543.431 813.435Z" fill="#A2C609"/>
<path style="mix-blend-mode:multiply" opacity="0.91" d="M438.722 600.003L620.072 718.363L735.778 642.915L546.806 557.965" fill="url(#paint0_linear_9_493)"/>
<path style="mix-blend-mode:multiply" opacity="0.91" d="M136.519 491.088L304.537 598.029L374.259 550.465L190.828 455.873" fill="url(#paint1_linear_9_493)"/>
<path d="M568.125 456.296L603.169 667.754C603.374 668.995 604.063 670.104 605.083 670.837C606.104 671.569 607.373 671.865 608.611 671.659C609.849 671.453 610.955 670.763 611.686 669.74C612.416 668.717 612.711 667.445 612.506 666.203L577.463 454.745C577.257 453.504 576.569 452.395 575.548 451.663C574.528 450.93 573.259 450.635 572.02 450.84C570.782 451.046 569.676 451.736 568.946 452.759C568.215 453.782 567.92 455.055 568.125 456.296Z" fill="#C24327"/>
<path d="M516.178 400.273L438.75 600.003C438.295 601.177 438.324 602.484 438.83 603.637C439.337 604.789 440.279 605.693 441.45 606.149C442.621 606.605 443.925 606.577 445.075 606.069C446.225 605.561 447.126 604.617 447.581 603.443L525.038 403.713C525.493 402.535 525.462 401.225 524.953 400.069C524.444 398.914 523.498 398.009 522.323 397.553C521.149 397.097 519.841 397.127 518.689 397.637C517.536 398.147 516.633 399.096 516.178 400.273Z" fill="#C24327"/>
<path d="M533.644 343.885L537.328 558.162C537.351 559.422 537.871 560.622 538.776 561.497C539.68 562.372 540.895 562.851 542.152 562.829C543.408 562.806 544.605 562.284 545.478 561.377C546.351 560.47 546.829 559.253 546.806 557.993L543.122 343.715C543.1 342.455 542.579 341.256 541.674 340.381C540.77 339.506 539.555 339.027 538.298 339.049C537.042 339.072 535.845 339.594 534.972 340.5C534.099 341.407 533.621 342.625 533.644 343.885Z" fill="#C24327"/>
<path d="M541.153 471.887C588.917 471.887 627.638 454.291 627.638 432.584C627.638 410.878 588.917 393.281 541.153 393.281C493.389 393.281 454.669 410.878 454.669 432.584C454.669 454.291 493.389 471.887 541.153 471.887Z" fill="#13897E"/>
<path d="M556.059 347.832V111.562C556.071 108.929 556.772 106.344 558.094 104.068C559.416 101.791 561.311 99.9033 563.59 98.5926C565.869 97.2819 568.451 96.5946 571.078 96.5996C573.706 96.6046 576.286 97.3017 578.559 98.6211L877.078 274.836C879.323 276.165 881.183 278.057 882.475 280.327C883.768 282.596 884.447 285.164 884.447 287.778V527.148C884.446 529.807 883.742 532.417 882.406 534.714C881.07 537.01 879.151 538.91 876.843 540.22C874.536 541.53 871.923 542.203 869.271 542.17C866.62 542.137 864.025 541.4 861.75 540.033L563.344 360.688C561.127 359.357 559.291 357.473 558.015 355.22C556.739 352.968 556.065 350.422 556.059 347.832Z" fill="#B095FE"/>
<path d="M569.672 261.247C569.447 261.726 568.266 266.181 567.338 265.25C566.409 264.32 561.488 266.434 561.488 266.434L547.763 248.926L549.591 243.287H561.966" fill="#FFC000"/>
<path d="M503.437 185.798L502.144 181.259L487.687 173.365V148.694C487.687 148.215 501.75 156.927 501.75 156.927L502.397 155.546C503.183 151.772 504.62 148.166 506.644 144.888L496.266 126.139L509.062 116.214L518.709 135.612C522.225 134.801 525.886 134.868 529.369 135.81V117.229L547.847 127.492V146.975C551.475 150.423 554.779 154.198 557.719 158.252L568.969 151.119L581.541 175.113L571.556 183.063L572.4 187.095C573.692 191.352 574.725 195.683 575.494 200.065L590.316 208.241V232.798L576.253 224.34C575.644 228.818 574.091 233.114 571.697 236.943L582.272 254.931L568.856 265.109L559.434 246.586H547.734V265.109L530.1 254.339V236.266C526.055 232.288 522.487 227.85 519.469 223.043L509.062 230.458L496.266 205.957L506.897 198.091L505.856 194.426C504.787 191.409 503.972 188.59 503.437 185.798Z" fill="#FFC000"/>
<path d="M469.828 158.957L486.169 149.061L490.247 155.095L483.919 168.374" fill="#FFC000"/>
<path d="M491.203 240.608L503.297 235.562V228.231" fill="#FFC000"/>
<path d="M530.072 275.513L547.819 265.25L543.319 251.773L527.344 256.482L530.072 275.513Z" fill="#FFC000"/>
<path d="M509.203 116.214L491.428 126.477L501.187 145.931L511.847 146.129L514.294 126.477L509.203 116.214Z" fill="#FFC000"/>
<path d="M525.136 214.04C529.256 212.417 530.34 205.345 527.557 198.243C524.774 191.142 519.177 186.7 515.057 188.323C510.937 189.946 509.853 197.018 512.636 204.12C515.419 211.221 521.016 215.663 525.136 214.04Z" fill="#FFC000"/>
<path d="M548.072 127.492L530.325 137.755L511.847 127.492L529.594 117.229L548.072 127.492Z" fill="#FFC000"/>
<path d="M551.334 161.495L569.081 151.232L581.653 175.225L563.906 185.488L551.334 161.495Z" fill="#FFC000"/>
<path d="M582.356 255.072L564.609 265.363L551.194 275.513L568.969 265.25L582.356 255.072Z" fill="#FFC000"/>
<path opacity="0.44" d="M569.672 261.247C569.447 261.726 568.266 266.181 567.338 265.25C566.409 264.32 561.488 266.434 561.488 266.434L547.763 248.926L549.591 243.287H561.966" fill="#053855"/>
<path d="M503.437 185.798L502.144 181.259L487.687 173.365V148.694C487.687 148.215 501.75 156.927 501.75 156.927L502.397 155.546C503.183 151.772 504.62 148.166 506.644 144.888L496.266 126.139L509.062 116.214L518.709 135.612C522.225 134.801 525.886 134.868 529.369 135.81V117.229L547.847 127.492V146.975C551.475 150.423 554.779 154.198 557.719 158.252L568.969 151.119L581.541 175.113L571.556 183.063L572.4 187.095C573.692 191.352 574.725 195.683 575.494 200.065L590.316 208.241V232.798L576.253 224.34C575.644 228.818 574.091 233.114 571.697 236.943L582.272 254.931L568.856 265.109L559.434 246.586H547.734V265.109L530.1 254.339V236.266C526.055 232.288 522.487 227.85 519.469 223.043L509.062 230.458L496.266 205.957L506.897 198.091L505.856 194.426C504.787 191.409 503.972 188.59 503.437 185.798Z" fill="#FFC000"/>
<path opacity="0.44" d="M469.828 158.957L486.169 149.061L490.247 155.095L483.919 168.374" fill="#053855"/>
<path d="M491.203 240.608L503.297 235.562V228.231" fill="#FFC000"/>
<path d="M530.072 275.513L547.819 265.25L543.319 251.773L527.344 256.482L530.072 275.513Z" fill="#FFC000"/>
<path d="M509.203 116.214L491.428 126.477L501.187 145.931L511.847 146.129L514.294 126.477L509.203 116.214Z" fill="#FFC000"/>
<path d="M525.136 214.04C529.256 212.417 530.34 205.345 527.557 198.243C524.774 191.142 519.177 186.7 515.057 188.323C510.937 189.946 509.853 197.018 512.636 204.12C515.419 211.221 521.016 215.663 525.136 214.04Z" fill="#FFC000"/>
<path d="M551.334 161.495L569.081 151.232L581.653 175.225L563.906 185.488L551.334 161.495Z" fill="#FFC000"/>
<path d="M582.356 255.072L564.609 265.363L551.194 275.513L568.969 265.25L582.356 255.072Z" fill="#FFC000"/>
<path opacity="0.44" d="M503.437 185.798L502.144 181.259L487.687 173.365V148.694C487.687 148.215 501.75 156.927 501.75 156.927L502.397 155.546C503.183 151.772 504.62 148.166 506.644 144.888L496.266 126.139L509.062 116.214L518.709 135.612C522.225 134.801 525.886 134.868 529.369 135.81V117.229L547.847 127.492V146.975C551.475 150.423 554.779 154.198 557.719 158.252L568.969 151.119L581.541 175.113L571.556 183.063L572.4 187.095C573.692 191.352 574.725 195.683 575.494 200.065L590.316 208.241V232.798L576.253 224.34C575.644 228.818 574.091 233.114 571.697 236.943L582.272 254.931L568.856 265.109L559.434 246.586H547.734V265.109L530.1 254.339V236.266C526.055 232.288 522.487 227.85 519.469 223.043L509.062 230.458L496.266 205.957L506.897 198.091L505.856 194.426C504.787 191.409 503.972 188.59 503.437 185.798Z" fill="#053855"/>
<path opacity="0.1" d="M491.203 240.608L503.297 235.562V228.231" fill="#053855"/>
<path opacity="0.1" d="M530.072 275.513L547.819 265.25L543.319 251.773L527.344 256.482L530.072 275.513Z" fill="#053855"/>
<path opacity="0.1" d="M525.136 214.04C529.256 212.417 530.34 205.345 527.557 198.243C524.774 191.142 519.177 186.7 515.057 188.323C510.937 189.946 509.853 197.018 512.636 204.12C515.419 211.221 521.016 215.663 525.136 214.04Z" fill="#053855"/>
<path opacity="0.1" d="M551.334 161.495L569.081 151.232L581.653 175.225L563.906 185.488L551.334 161.495Z" fill="#053855"/>
<path opacity="0.1" d="M582.356 255.072L564.609 265.363L551.194 275.513L568.969 265.25L582.356 255.072Z" fill="#053855"/>
<path opacity="0.1" d="M491.203 240.608L503.297 235.562V228.231" fill="#053855"/>
<path opacity="0.44" d="M530.072 275.513L547.819 265.25L543.319 251.773L527.344 256.482L530.072 275.513Z" fill="#053855"/>
<path d="M485.55 196.061L484.256 191.522L469.688 183.627V158.957C469.688 158.478 483.75 167.19 483.75 167.19L484.397 165.808C485.183 162.035 486.62 158.428 488.644 155.151L478.463 136.317L491.372 126.477L501.103 145.875C504.619 145.063 508.279 145.131 511.763 146.072V127.492L530.241 137.755V157.153C533.868 160.602 537.173 164.377 540.113 168.431L551.363 161.297L563.934 185.291L554.063 193.439L554.906 197.471C556.198 201.727 557.231 206.058 558 210.44L572.822 218.617V243.174L558.759 234.716C558.115 239.224 556.513 243.541 554.063 247.375L564.638 265.363L551.25 275.569L541.828 257.046H530.128V275.569L512.494 264.799V246.529C508.428 242.545 504.841 238.098 501.806 233.278L491.203 240.552L478.406 216.079L489.038 208.213L487.997 204.548C487.041 201.672 486.225 198.852 485.55 196.061Z" fill="#FFC000"/>
<path opacity="0.44" d="M525.136 214.04C529.256 212.417 530.34 205.345 527.557 198.243C524.774 191.142 519.177 186.7 515.057 188.323C510.937 189.946 509.853 197.018 512.636 204.12C515.419 211.221 521.016 215.663 525.136 214.04Z" fill="#053855"/>
<path opacity="0.44" d="M582.356 255.072L564.609 265.363L551.194 275.513L568.969 265.25L582.356 255.072Z" fill="#053855"/>
<path d="M548.072 127.492L530.325 137.755L511.847 127.492L529.594 117.229L548.072 127.492Z" fill="#FFC000"/>
<path opacity="0.44" d="M548.072 127.436L530.353 137.755L511.847 127.549L529.566 117.229L548.072 127.436Z" fill="#053855"/>
<path d="M590.456 208.354L572.681 218.617V243.202L590.456 232.939V208.354Z" fill="#FFC000"/>
<path opacity="0.44" d="M590.456 208.354L572.681 218.617V243.202L590.456 232.939V208.354Z" fill="#053855"/>
<path d="M739.294 335.285V151.514C739.295 149.718 739.77 147.954 740.669 146.4C741.569 144.846 742.862 143.558 744.417 142.666C745.972 141.773 747.734 141.308 749.526 141.317C751.318 141.326 753.076 141.809 754.622 142.717L987.609 280.362C991.318 282.548 994.393 285.668 996.529 289.411C998.665 293.155 999.788 297.393 999.787 301.706V487.197C999.785 489.001 999.305 490.772 998.397 492.33C997.489 493.888 996.186 495.176 994.619 496.065C993.053 496.953 991.279 497.409 989.48 497.387C987.68 497.364 985.919 496.864 984.375 495.937L750.769 355.585C747.271 353.482 744.375 350.508 742.364 346.95C740.354 343.393 739.296 339.374 739.294 335.285Z" fill="#FFC000"/>
<path d="M541.153 461.737C588.917 461.737 627.638 444.141 627.638 422.434C627.638 400.728 588.917 383.131 541.153 383.131C493.389 383.131 454.669 400.728 454.669 422.434C454.669 444.141 493.389 461.737 541.153 461.737Z" fill="#16A79E"/>
<path d="M464.006 409.239V411.805L465.3 413.384" fill="#ADCEE1"/>
<path d="M515.138 378.197L465.469 409.042C465.008 409.313 464.626 409.7 464.36 410.165C464.095 410.63 463.955 411.157 463.955 411.692C463.955 412.228 464.095 412.754 464.36 413.219C464.626 413.684 465.008 414.071 465.469 414.342L540.844 457.085C541.891 457.692 543.079 458.011 544.289 458.011C545.499 458.011 546.687 457.692 547.734 457.085L597.319 427.819C600.919 425 600.638 419.361 597.319 419.051L522.366 377.972C521.254 377.346 519.994 377.037 518.72 377.077C517.447 377.117 516.208 377.504 515.138 378.197Z" fill="#88D3D8"/>
<path d="M515.138 376.054L465.469 406.927C465.008 407.199 464.626 407.586 464.36 408.051C464.095 408.516 463.955 409.042 463.955 409.578C463.955 410.113 464.095 410.64 464.36 411.105C464.626 411.569 465.008 411.957 465.469 412.228L540.844 454.971C541.891 455.577 543.079 455.896 544.289 455.896C545.499 455.896 546.687 455.577 547.734 454.971L597.178 425.818C597.763 425.482 598.248 424.997 598.586 424.413C598.924 423.829 599.101 423.166 599.101 422.491C599.101 421.815 598.924 421.152 598.586 420.568C598.248 419.984 597.763 419.499 597.178 419.164L522.338 375.942C521.24 375.305 519.99 374.979 518.722 374.999C517.454 375.019 516.215 375.384 515.138 376.054Z" fill="white"/>
<path d="M517.191 371.853C517.191 371.853 537.806 305.117 537.694 305.117C537.581 305.117 538.341 302.157 542.025 303.82L621.197 350.538C621.197 350.538 625.022 352.089 624.291 355.67C623.559 359.251 604.125 420.996 604.125 420.996C603.72 421.583 603.139 422.025 602.466 422.259C601.794 422.492 601.064 422.504 600.384 422.293C597.966 421.532 519.047 375.575 519.047 375.575C518.324 375.307 517.73 374.773 517.386 374.082C517.041 373.391 516.971 372.594 517.191 371.853Z" fill="#053855"/>
<path d="M538.987 309.938L620.072 357.333L603.253 413.92L521.128 367.963L538.987 309.938Z" fill="#FFC000"/>
<path d="M512.1 383.131L493.931 394.409C493.605 394.604 493.335 394.881 493.147 395.212C492.959 395.543 492.861 395.917 492.861 396.298C492.861 396.679 492.959 397.053 493.147 397.384C493.335 397.715 493.605 397.992 493.931 398.187L559.125 435.432C560.1 435.996 561.206 436.293 562.331 436.293C563.457 436.293 564.563 435.996 565.538 435.432C569.728 432.979 576.956 428.581 581.372 425.846C581.738 425.585 582.036 425.241 582.242 424.841C582.447 424.441 582.555 423.998 582.555 423.548C582.555 423.098 582.447 422.655 582.242 422.255C582.036 421.855 581.738 421.511 581.372 421.25L515.756 383.018C515.194 382.702 514.557 382.545 513.913 382.565C513.268 382.585 512.642 382.781 512.1 383.131Z" fill="#FFC000"/>
<path d="M513.084 413.92L535.866 426.748C536.21 426.949 536.496 427.237 536.694 427.583C536.893 427.93 536.998 428.322 536.998 428.722C536.998 429.121 536.893 429.514 536.694 429.86C536.496 430.206 536.21 430.494 535.866 430.695L522.478 438.562C522.016 438.829 521.493 438.969 520.959 438.969C520.426 438.969 519.902 438.829 519.441 438.562L496.125 425.254C495.833 425.086 495.59 424.844 495.421 424.552C495.252 424.259 495.163 423.928 495.163 423.59C495.163 423.253 495.252 422.921 495.421 422.629C495.59 422.337 495.833 422.095 496.125 421.927L510.187 413.891C510.635 413.654 511.134 413.532 511.64 413.537C512.145 413.542 512.642 413.673 513.084 413.92Z" fill="#FFC000"/>
<path opacity="0.1" d="M512.1 383.131L493.931 394.409C493.605 394.604 493.335 394.881 493.147 395.212C492.959 395.543 492.861 395.917 492.861 396.298C492.861 396.679 492.959 397.053 493.147 397.384C493.335 397.715 493.605 397.992 493.931 398.187L559.125 435.432C560.1 435.996 561.206 436.293 562.331 436.293C563.457 436.293 564.563 435.996 565.538 435.432C569.728 432.979 576.956 428.581 581.372 425.846C581.738 425.585 582.036 425.241 582.242 424.841C582.447 424.441 582.555 423.998 582.555 423.548C582.555 423.098 582.447 422.655 582.242 422.255C582.036 421.855 581.738 421.511 581.372 421.25L515.756 383.018C515.194 382.702 514.557 382.545 513.913 382.565C513.268 382.585 512.642 382.781 512.1 383.131Z" fill="#053855"/>
<path opacity="0.1" d="M513.084 413.92L535.866 426.748C536.21 426.949 536.496 427.237 536.694 427.583C536.893 427.93 536.998 428.322 536.998 428.722C536.998 429.121 536.893 429.514 536.694 429.86C536.496 430.206 536.21 430.494 535.866 430.695L522.478 438.562C522.016 438.829 521.493 438.969 520.959 438.969C520.426 438.969 519.902 438.829 519.441 438.562L496.125 425.254C495.833 425.086 495.59 424.844 495.421 424.552C495.252 424.259 495.163 423.928 495.163 423.59C495.163 423.253 495.252 422.921 495.421 422.629C495.59 422.337 495.833 422.095 496.125 421.927L510.187 413.891C510.635 413.654 511.134 413.532 511.64 413.537C512.145 413.542 512.642 413.673 513.084 413.92Z" fill="#053855"/>
<path d="M404.578 447.302C404.578 447.302 413.381 460.158 414.816 457.508C416.25 454.858 419.541 434.953 419.541 434.953L400.022 427.538" fill="#EEAD97"/>
<path d="M469.322 464.077C469.322 464.077 492.947 515.081 492.525 699.276C492.525 699.276 487.716 711.991 453.6 703.251L439.763 538.736L433.772 690.507C433.772 690.507 417.741 702.433 392.822 688.111C392.822 688.111 398.447 485.111 412.031 448.458" fill="#FFC000"/>
<path d="M410.906 454.773C405 429.708 392.822 364.918 405.872 355.05C417.122 346.591 443.728 355.783 463.95 369.485C480.544 380.763 473.766 446.146 470.897 468.871C448.903 471.605 428.4 467.771 410.906 454.773Z" fill="#C24327"/>
<path d="M460.519 318.453C460.519 318.453 461.081 351.751 451.828 352.568C448.205 353.176 444.483 352.597 441.215 350.915C437.947 349.234 435.307 346.541 433.688 343.236" fill="#EEAD97"/>
<path d="M447.188 348.396V364.241C447.188 364.241 438.75 367.512 426.853 359.589V346.676" fill="#EEAD97"/>
<path d="M458.831 324.6C458.831 324.6 470.081 312.843 462.741 302.833C455.4 292.824 447.188 298.125 447.188 298.125C447.188 298.125 445.444 293.783 436.753 292.909C428.062 292.035 424.603 300.747 421.116 302.918C417.628 305.089 412.003 311.376 411.553 316.79C411.103 322.203 418.95 351.694 428.063 353.865C437.175 356.036 448.847 359.448 458.831 324.6Z" fill="#C24327"/>
<path d="M411.469 352.653C411.469 352.653 391.781 352.315 372.825 377.521C353.869 402.726 403.116 453.364 403.594 450.826C404.072 448.289 411.469 425.761 411.469 425.761C411.469 425.761 389.925 407.209 393.581 401.796C397.237 396.383 411.469 393.761 411.469 393.761" fill="#C24327"/>
<path d="M538.762 404.39C538.762 404.39 557.184 401.57 559.547 398.243C561.909 394.916 560.672 386.261 559.322 383.892C557.972 381.524 550.744 385.528 550.744 385.528C550.744 385.528 550.744 383.188 547.594 383.244C544.444 383.3 538.959 388.686 538.959 388.686L519.666 399.963L521.184 418.064L538.762 404.39Z" fill="#EEAD97"/>
<path d="M467.719 373.573C467.719 373.573 488.363 406.194 488.728 407.181C489.094 408.168 519.412 393.789 519.412 393.789C519.412 393.789 527.681 395.988 533.616 411.749C533.616 411.749 507.769 447.02 470.447 439.943C452.644 436.503 443.841 405.856 443.841 405.856" fill="#C24327"/>
<path d="M224.184 366.948C223.916 365.784 223.408 364.69 222.694 363.734C221.361 362.123 219.775 360.742 217.997 359.645C194.175 343.49 161.241 339.035 136.069 354.824C130.444 358.433 121.781 366.609 125.184 374.306C127.153 378.789 133.144 381.383 137.278 383.216C150.778 389.165 165.853 392.013 180.338 394.494C185.681 395.396 191.053 396.298 196.453 396.806C200.18 397.17 203.938 396.587 207.379 395.108C210.821 393.629 213.834 391.304 216.141 388.347C219.853 383.611 225.872 373.94 224.184 366.948Z" fill="#754C24"/>
<path d="M124.509 370.81C124.509 370.81 146.222 390.546 183.741 387.727C221.259 384.907 224.184 367.032 224.184 367.032C224.184 367.032 214.481 491.68 209.334 493.907C204.188 496.135 185.034 505.185 175.809 506.003C166.584 506.82 137.306 494.95 136.575 491.708C135.844 488.466 124.509 370.81 124.509 370.81Z" fill="#FFC000"/>
<path d="M131.372 189.153C130.219 186.813 126.675 188.871 127.828 191.212C153.506 243.089 158.513 301.508 163.125 358.236C163.322 360.829 167.428 360.858 167.231 358.236C162.534 300.747 157.5 241.736 131.372 189.153Z" fill="#007F68"/>
<path d="M128.081 189.633C128.081 189.633 135.253 216.558 127.856 230.007C120.459 243.456 114.328 246.163 123.188 262.967C132.047 279.77 155.672 281.941 157.275 294.77C158.878 307.598 145.913 212.498 128.081 189.633Z" fill="#007F68"/>
<path d="M210.178 238.24C190.459 279.736 179.378 324.824 177.609 370.754C177.609 373.94 182.475 373.94 182.616 370.754C184.339 325.699 195.191 281.467 214.509 240.749C215.859 237.873 211.556 235.364 210.178 238.24Z" fill="#007F68"/>
<path d="M213.75 251.379C213.75 248.559 213.159 243.371 213.441 238.607C212.503 239.227 211.566 239.828 210.628 240.411C200.869 264.179 186.328 320.004 181.941 337.118C187.875 324.318 212.175 322.57 219.291 304.159C222.444 296.402 222.594 287.745 219.713 279.883C216.187 270.771 214.173 261.143 213.75 251.379Z" fill="#007F68"/>
<path d="M782.494 205.083V335.201C782.494 346.084 799.369 346.112 799.369 335.201V205.083C799.369 194.2 782.494 194.172 782.494 205.083Z" fill="white"/>
<path d="M808.819 245.965V351.187C808.819 362.07 825.694 362.098 825.694 351.187V245.965C825.694 235.082 808.819 235.054 808.819 245.965Z" fill="white"/>
<path d="M782.494 227.329V335.313C782.494 346.197 799.369 346.225 799.369 335.313V238.917C793.687 235.223 788.006 231.389 782.494 227.329Z" fill="#A2C609"/>
<path d="M808.819 263.079V351.187C808.819 362.07 825.694 362.098 825.694 351.187V275.851C819.796 271.968 814.159 267.701 808.819 263.079Z" fill="#FF9F9F"/>
<path d="M668.35 364.241C688.916 359.757 699.677 328.875 692.385 295.263C685.093 261.652 662.509 238.039 641.943 242.523C621.376 247.007 610.615 277.89 617.907 311.501C625.199 345.113 647.783 368.725 668.35 364.241Z" fill="white"/>
<path d="M655.144 307.401L627.834 251.266C627.834 251.266 647.044 226.116 674.859 257.666L655.144 307.401Z" fill="#8B54BA"/>
<path d="M655.144 307.401L694.519 320.427C694.519 320.427 698.906 285.466 674.831 257.694L655.144 307.401Z" fill="#FF9F9F"/>
<path d="M696.909 419.925L719.634 405.715L738.169 428.722L770.709 413.327L802.35 451.023L844.537 441.55V506.031L696.909 419.925Z" fill="#8B54BA"/>
<path d="M599.344 150.442L676.8 196.174C677.517 196.51 678.333 196.567 679.089 196.331C679.845 196.096 680.487 195.587 680.888 194.903C681.289 194.218 681.421 193.409 681.258 192.632C681.095 191.856 680.648 191.168 680.006 190.704L602.522 144.973C601.805 144.636 600.989 144.58 600.233 144.815C599.477 145.05 598.835 145.56 598.434 146.244C598.033 146.928 597.901 147.738 598.064 148.514C598.227 149.291 598.674 149.978 599.316 150.442H599.344Z" fill="white"/>
<path d="M597.6 166.401L675 212.132C675.717 212.468 676.533 212.525 677.289 212.289C678.045 212.054 678.687 211.545 679.088 210.861C679.489 210.177 679.621 209.367 679.458 208.59C679.295 207.814 678.848 207.126 678.206 206.662L600.806 160.931C600.089 160.594 599.273 160.538 598.517 160.773C597.761 161.008 597.12 161.518 596.719 162.202C596.318 162.886 596.186 163.696 596.349 164.472C596.512 165.249 596.958 165.936 597.6 166.401Z" fill="white"/>
<path d="M597.6 182.528L675 228.316C675.717 228.652 676.533 228.708 677.289 228.473C678.045 228.238 678.687 227.728 679.088 227.044C679.489 226.36 679.621 225.551 679.458 224.774C679.295 223.997 678.848 223.31 678.206 222.846L600.806 177.114C600.103 176.832 599.322 176.811 598.604 177.055C597.886 177.299 597.279 177.792 596.892 178.446C596.505 179.099 596.364 179.869 596.494 180.618C596.623 181.366 597.016 182.044 597.6 182.528Z" fill="white"/>
<path d="M861.328 373.404L775.097 322.513C774.816 322.344 774.562 322.259 774.281 322.147V341.685L859.416 391.928C860.019 392.282 860.66 392.566 861.328 392.774V373.404Z" fill="#053855"/>
</g>
<defs>
<linearGradient id="paint0_linear_9_493" x1="643.725" y1="662.905" x2="449.47" y2="521.064" gradientUnits="userSpaceOnUse">
<stop stop-color="white" stop-opacity="0"/>
<stop offset="0.99" stop-color="#808080"/>
</linearGradient>
<linearGradient id="paint1_linear_9_493" x1="319.753" y1="574.741" x2="215.451" y2="487.704" gradientUnits="userSpaceOnUse">
<stop stop-color="white" stop-opacity="0"/>
<stop offset="0.99" stop-color="#808080"/>
</linearGradient>
</defs>
</svg>
