<svg width="102" height="103" viewBox="0 0 102 103" fill="none" xmlns="http://www.w3.org/2000/svg">
<path d="M67.479 52.4009C67.4484 56.0377 67.4172 59.6744 67.3867 63.3112C67.4114 63.8344 67.3539 64.3773 67.4775 64.8766C67.8089 66.2168 68.798 66.4857 70.0481 66.4203C71.3788 66.3505 71.3585 65.4646 71.442 64.5082C71.6165 62.5074 72.8934 61.4819 75.0105 61.5538C76.7787 61.6142 78.0179 62.8773 78.1211 64.724C78.286 67.6849 76.2998 70.9037 73.5053 72.2025C70.2174 73.7316 66.335 73.1887 64.037 71.0738C61.6822 68.9073 60.8602 66.1717 60.7062 63.1324C60.6328 61.6796 60.6473 60.2224 60.6226 58.7674C60.6473 51.2955 60.6698 43.8228 60.7025 36.3509C60.7054 35.7019 60.6945 35.1924 59.7948 35.212C54.1187 35.3363 48.4368 34.9955 42.7629 35.3974C42.2506 36.0449 42.5224 36.8008 42.5202 37.4977C42.4955 48.6907 42.4969 59.883 42.4926 71.076C41.7331 72.8878 40.3399 73.829 38.4321 73.4358C36.4051 73.0186 35.9625 71.3834 35.9931 69.5105C36.0403 66.6616 35.996 63.8112 36.0127 60.9608C36.017 60.2137 36.081 59.4985 35.1129 59.2645C29.9093 58.005 26.5109 54.6314 24.2361 49.9488C22.4315 44.277 23.0231 39.0174 26.8452 34.2694C27.8961 32.9641 29.2813 32.0571 30.482 30.9335C33.8593 29.0243 37.5178 28.5977 41.3363 28.6464C48.556 28.7394 55.7779 28.6922 62.9984 28.6573C64.4672 28.65 65.7354 28.9596 66.7151 30.1101C75.8375 30.1101 84.96 30.1152 94.0824 30.1014C84.96 30.1152 75.8375 30.1101 66.7151 30.1101C66.8467 30.512 66.9789 30.9146 67.1105 31.3165C67.0909 41.6912 67.0705 52.0658 67.0509 62.4405C67.0509 62.7748 67.0683 63.1011 67.3874 63.3119C67.4179 59.6751 67.4492 56.0384 67.4797 52.4016C78.7294 52.4016 89.9783 52.4009 101.227 52.4002C101.45 49.5461 101.339 46.6965 100.876 43.881C100.063 38.9476 98.999 34.0768 96.5374 29.6399C96.0832 27.7445 94.8259 26.2829 93.8615 24.6622C85.9077 11.2991 74.0904 3.35113 58.927 0.763099C45.6511 -1.50225 33.1877 1.2871 22.0289 8.98433C14.5126 14.1691 8.64904 20.843 4.92652 29.2736C4.83422 29.4139 4.74192 29.5541 4.64962 29.6951C4.62491 29.8332 4.60092 29.9713 4.57621 30.1094C3.04927 32.8042 2.17206 35.7426 1.47436 38.7274C0.468505 43.0314 -0.24373 47.3753 0.0782294 51.8144C0.0782294 52.0252 0.0971254 52.2563 0.134917 52.5114C0.198146 62.2188 2.99331 71.076 8.41284 79.117C8.56764 79.4062 8.69555 79.7129 8.88015 79.9811C20.6916 97.13 41.3704 105.47 61.5863 100.907C74.9124 97.8996 85.4505 90.5978 92.9784 79.101C94.001 77.3248 95.1108 75.5921 96.0309 73.7643C99.4096 67.0511 101.293 59.9586 101.227 52.3994C89.9783 52.3994 78.7294 52.4002 67.4797 52.4009H67.479ZM67.4579 32.8849C67.4608 32.7868 67.463 32.688 67.4615 32.5906C67.463 32.6887 67.4615 32.7868 67.4579 32.8849ZM42.8734 58.7536C42.84 62.0916 42.8138 65.4304 42.7666 68.7685C42.8138 65.4304 42.84 62.0916 42.8727 58.7536H42.8734Z" fill="#FFC000"/>
<path d="M29.692 42.8468C29.4935 44.7299 29.6469 46.5439 30.745 48.1711C31.684 50.5753 33.5097 51.9256 35.9371 52.7709V47.6231C35.9371 46.0308 35.9371 44.4391 35.9371 42.8468V35.6089C32.365 36.9367 30.5096 39.4426 29.6912 42.8468H29.692Z" fill="#FFC000"/>
</svg>
